<svg xmlns="http://www.w3.org/2000/svg" xmlns:xlink="http://www.w3.org/1999/xlink" width="290" height="139.777" viewBox="0 0 290 139.777">
  <defs>
    <clipPath id="clip-path">
      <rect id="Rectangle_61" data-name="Rectangle 61" width="290" height="139.777" fill="none"/>
    </clipPath>
  </defs>
  <g id="Group_62" data-name="Group 62" transform="translate(0 0)">
    <g id="Group_61" data-name="Group 61" transform="translate(0 0)" clip-path="url(#clip-path)">
      <path id="Path_73" data-name="Path 73" d="M161.341,73.8a16.888,16.888,0,0,0-23.211,15.67A16.89,16.89,0,1,0,161.341,73.8M166.016,92a11.286,11.286,0,0,1-21.995,0,11.159,11.159,0,0,1-.288-2.534,11.285,11.285,0,1,1,22.57,0A11.158,11.158,0,0,1,166.016,92M22.613,45.7c-.04-.115-.079-.226-.11-.339a5.974,5.974,0,0,1-3.466.9v1.686a5.7,5.7,0,0,0,4.3-.935,4.844,4.844,0,0,1-.72-1.307" transform="translate(13.754 32.774)" fill="#1961e4"/>
      <path id="Path_74" data-name="Path 74" d="M161.341,73.8a16.888,16.888,0,0,0-23.211,15.67A16.89,16.89,0,1,0,161.341,73.8ZM166.016,92a11.286,11.286,0,0,1-21.995,0,11.159,11.159,0,0,1-.288-2.534,11.285,11.285,0,1,1,22.57,0A11.158,11.158,0,0,1,166.016,92ZM22.613,45.7c-.04-.115-.079-.226-.11-.339a5.974,5.974,0,0,1-3.466.9v1.686a5.7,5.7,0,0,0,4.3-.935A4.844,4.844,0,0,1,22.613,45.7Z" transform="translate(13.754 32.774)" fill="none" stroke="#1961e4" stroke-miterlimit="10" stroke-width="0.75"/>
      <path id="Path_75" data-name="Path 75" d="M131.369,64.42v4.618a11.071,11.071,0,0,1-11.038,11.038h-5.514a25.283,25.283,0,0,0-5.312-18.2h13.379V64.42Z" transform="translate(79.117 44.703)" fill="#fff"/>
      <path id="Path_76" data-name="Path 76" d="M131.369,64.42v4.618a11.071,11.071,0,0,1-11.038,11.038h-5.514a25.283,25.283,0,0,0-5.312-18.2h13.379V64.42Z" transform="translate(79.117 44.703)" fill="none" stroke="#1961e4" stroke-miterlimit="10" stroke-width="0.75"/>
      <path id="Path_77" data-name="Path 77" d="M17.15,77.542c0,.856.045,1.7.127,2.534H10.4A9.846,9.846,0,0,1,.427,69.091l.7-7.219H22.585a25.2,25.2,0,0,0-5.434,15.67" transform="translate(0.271 44.703)" fill="#fff"/>
      <path id="Path_78" data-name="Path 78" d="M17.15,77.542c0,.856.045,1.7.127,2.534H10.4A9.846,9.846,0,0,1,.427,69.091l.7-7.219H22.585A25.2,25.2,0,0,0,17.15,77.542Z" transform="translate(0.271 44.703)" fill="none" stroke="#1961e4" stroke-miterlimit="10" stroke-width="0.75"/>
      <path id="Path_79" data-name="Path 79" d="M23.366,51.14V64.054H1.123L1.4,61.206A18.552,18.552,0,0,1,6.165,51.14Z" transform="translate(0.811 36.949)" fill="#1961e4"/>
      <path id="Path_80" data-name="Path 80" d="M23.366,51.14V64.054H1.123L1.4,61.206A18.552,18.552,0,0,1,6.165,51.14Z" transform="translate(0.811 36.949)" fill="none" stroke="#1961e4" stroke-miterlimit="10" stroke-width="0.75"/>
      <path id="Path_81" data-name="Path 81" d="M117.242,77.542c0,.856.047,1.7.127,2.534H41.631c.083-.834.129-1.678.129-2.534a25.159,25.159,0,0,0-5.441-15.67h86.363a25.178,25.178,0,0,0-5.44,15.67" transform="translate(26.24 44.703)" fill="#fff"/>
      <path id="Path_82" data-name="Path 82" d="M117.242,77.542c0,.856.047,1.7.127,2.534H41.631c.083-.834.129-1.678.129-2.534a25.159,25.159,0,0,0-5.441-15.67h86.363A25.178,25.178,0,0,0,117.242,77.542Z" transform="translate(26.24 44.703)" fill="none" stroke="#1961e4" stroke-miterlimit="10" stroke-width="0.75"/>
      <path id="Path_83" data-name="Path 83" d="M198.863,18.068H87.972c-6.072,0-14.557,3.5-18.861,7.782L39.146,55.656A61,61,0,0,1,20.979,67.294l-7.948,2.963a17.227,17.227,0,0,0-6.64,4.778h17.2V87.948H1.349L.81,93.52H22.272a25.29,25.29,0,0,1,39.7,0h86.361a25.286,25.286,0,0,1,39.7,0h13.379V68.446H209.9V29.1a11.07,11.07,0,0,0-11.038-11.036M81.516,72.518H76.448a1.231,1.231,0,1,1,0-2.455h5.068a1.231,1.231,0,1,1,0,2.455m6.027-12.04a4.427,4.427,0,0,1-4.415,4.415H41l1.3,3.533a5.072,5.072,0,0,1-5.8-1.7,5.693,5.693,0,0,1-4.3.935V65.974a5.974,5.974,0,0,0,3.466-.9,5.082,5.082,0,0,1,3.116-6.185l.531,1.435L57.847,41.206c.081-.084.169-.167.257-.248s.186-.172.288-.255c.052-.045.105-.09.164-.133.127-.107.264-.208.4-.3.11-.079.224-.158.344-.234.079-.053.162-.105.243-.155s.189-.114.282-.172c.122-.071.246-.136.37-.2s.238-.129.362-.191l.014,0c.2-.1.4-.195.6-.282.059-.028.121-.048.177-.076a13.691,13.691,0,0,1,1.418-.508c.062-.012.122-.031.184-.048a9.935,9.935,0,0,1,1.1-.246c.1-.019.2-.036.3-.045A.154.154,0,0,1,64.4,38.1c.133-.017.26-.029.389-.04a.088.088,0,0,1,.048,0,.287.287,0,0,1,.065-.005c.146-.012.288-.017.429-.017h17.8a4.427,4.427,0,0,1,4.415,4.415Z" transform="translate(0.585 13.055)" fill="#fff"/>
      <path id="Path_84" data-name="Path 84" d="M198.863,18.068H87.972c-6.072,0-14.557,3.5-18.861,7.782L39.146,55.656A61,61,0,0,1,20.979,67.294l-7.948,2.963a17.227,17.227,0,0,0-6.64,4.778h17.2V87.948H1.349L.81,93.52H22.272a25.29,25.29,0,0,1,39.7,0h86.361a25.286,25.286,0,0,1,39.7,0h13.379V68.446H209.9V29.1A11.07,11.07,0,0,0,198.863,18.068ZM81.516,72.518H76.448a1.231,1.231,0,1,1,0-2.455h5.068a1.231,1.231,0,1,1,0,2.455Zm6.027-12.04a4.427,4.427,0,0,1-4.415,4.415H41l1.3,3.533a5.072,5.072,0,0,1-5.8-1.7,5.693,5.693,0,0,1-4.3.935V65.974a5.974,5.974,0,0,0,3.466-.9,5.082,5.082,0,0,1,3.116-6.185l.531,1.435L57.847,41.206c.081-.084.169-.167.257-.248s.186-.172.288-.255c.052-.045.105-.09.164-.133.127-.107.264-.208.4-.3.11-.079.224-.158.344-.234.079-.053.162-.105.243-.155s.189-.114.282-.172c.122-.071.246-.136.37-.2s.238-.129.362-.191l.014,0c.2-.1.4-.195.6-.282.059-.028.121-.048.177-.076a13.691,13.691,0,0,1,1.418-.508c.062-.012.122-.031.184-.048a9.935,9.935,0,0,1,1.1-.246c.1-.019.2-.036.3-.045A.154.154,0,0,1,64.4,38.1c.133-.017.26-.029.389-.04a.088.088,0,0,1,.048,0,.287.287,0,0,1,.065-.005c.146-.012.288-.017.429-.017h17.8a4.427,4.427,0,0,1,4.415,4.415Z" transform="translate(0.585 13.055)" fill="none" stroke="#1961e4" stroke-miterlimit="10" stroke-width="0.75"/>
      <path id="Path_85" data-name="Path 85" d="M23.166,51.954l1.686,4.565H66.976A4.427,4.427,0,0,0,71.391,52.1V34.073a4.428,4.428,0,0,0-4.415-4.415h-17.8a11.987,11.987,0,0,0-7.484,3.175Z" transform="translate(16.737 21.428)" fill="#fff"/>
      <path id="Path_86" data-name="Path 86" d="M23.166,51.954l1.686,4.565H66.976A4.427,4.427,0,0,0,71.391,52.1V34.073a4.428,4.428,0,0,0-4.415-4.415h-17.8a11.987,11.987,0,0,0-7.484,3.175Z" transform="translate(16.737 21.428)" fill="none" stroke="#1961e4" stroke-miterlimit="10" stroke-width="0.75"/>
      <path id="Path_87" data-name="Path 87" d="M114,75.7a11.062,11.062,0,0,1-.288,2.534,11.286,11.286,0,0,1-21.995,0A11.159,11.159,0,0,1,91.43,75.7a11.285,11.285,0,1,1,22.57,0" transform="translate(66.058 46.54)" fill="#fff"/>
      <path id="Path_88" data-name="Path 88" d="M114,75.7a11.062,11.062,0,0,1-.288,2.534,11.286,11.286,0,0,1-21.995,0A11.159,11.159,0,0,1,91.43,75.7a11.285,11.285,0,1,1,22.57,0Z" transform="translate(66.058 46.54)" fill="none" stroke="#1961e4" stroke-miterlimit="10" stroke-width="0.75"/>
      <path id="Path_89" data-name="Path 89" d="M60.692,81.577c0,.856-.045,1.7-.127,2.534H56.489a20.873,20.873,0,0,0,.15-2.534,21.238,21.238,0,1,0-42.477,0,20.873,20.873,0,0,0,.15,2.534h-4.07a25.289,25.289,0,1,1,50.45-2.534" transform="translate(7.307 40.668)" fill="#fff"/>
      <path id="Path_90" data-name="Path 90" d="M60.692,81.577c0,.856-.045,1.7-.127,2.534H56.489a20.873,20.873,0,0,0,.15-2.534,21.238,21.238,0,1,0-42.477,0,20.873,20.873,0,0,0,.15,2.534h-4.07a25.289,25.289,0,1,1,50.45-2.534Z" transform="translate(7.307 40.668)" fill="none" stroke="#1961e4" stroke-miterlimit="10" stroke-width="0.75"/>
      <path id="Path_91" data-name="Path 91" d="M133.878,81.577c0,.856-.045,1.7-.127,2.534h-4.07a21.971,21.971,0,0,0,.15-2.534,21.238,21.238,0,1,0-42.477,0,20.874,20.874,0,0,0,.15,2.534H83.427a25.289,25.289,0,1,1,50.45-2.534" transform="translate(60.184 40.668)" fill="#fff"/>
      <path id="Path_92" data-name="Path 92" d="M133.878,81.577c0,.856-.045,1.7-.127,2.534h-4.07a21.971,21.971,0,0,0,.15-2.534,21.238,21.238,0,1,0-42.477,0,20.874,20.874,0,0,0,.15,2.534H83.427a25.289,25.289,0,1,1,50.45-2.534Z" transform="translate(60.184 40.668)" fill="none" stroke="#1961e4" stroke-miterlimit="10" stroke-width="0.75"/>
      <path id="Path_93" data-name="Path 93" d="M14.989,78.055a16.891,16.891,0,0,0,33.59,2.534A16.916,16.916,0,0,0,38.2,62.385a16.893,16.893,0,0,0-23.214,15.67m5.6,0a11.287,11.287,0,1,1,22.573,0,11.159,11.159,0,0,1-.286,2.534,11.289,11.289,0,0,1-22,0,11.062,11.062,0,0,1-.288-2.534" transform="translate(10.83 44.19)" fill="#1961e4"/>
      <path id="Path_94" data-name="Path 94" d="M14.989,78.055a16.891,16.891,0,0,0,33.59,2.534A16.916,16.916,0,0,0,38.2,62.385a16.893,16.893,0,0,0-23.214,15.67Zm5.6,0a11.287,11.287,0,1,1,22.573,0,11.159,11.159,0,0,1-.286,2.534,11.289,11.289,0,0,1-22,0A11.062,11.062,0,0,1,20.592,78.055Z" transform="translate(10.83 44.19)" fill="none" stroke="#1961e4" stroke-miterlimit="10" stroke-width="0.75"/>
      <path id="Path_95" data-name="Path 95" d="M18.242,75.7a11.062,11.062,0,0,0,.288,2.534,11.289,11.289,0,0,0,22,0,11.158,11.158,0,0,0,.286-2.534,11.287,11.287,0,1,0-22.573,0" transform="translate(13.18 46.54)" fill="#fff"/>
      <path id="Path_96" data-name="Path 96" d="M18.242,75.7a11.062,11.062,0,0,0,.288,2.534,11.289,11.289,0,0,0,22,0,11.158,11.158,0,0,0,.286-2.534,11.287,11.287,0,1,0-22.573,0Z" transform="translate(13.18 46.54)" fill="none" stroke="#1961e4" stroke-miterlimit="10" stroke-width="0.75"/>
      <rect id="Rectangle_57" data-name="Rectangle 57" width="8.485" height="2.548" transform="translate(202.001 106.574)" fill="#fff"/>
      <rect id="Rectangle_58" data-name="Rectangle 58" width="8.485" height="2.548" transform="translate(202.001 106.574)" fill="none" stroke="#1961e4" stroke-miterlimit="10" stroke-width="0.75"/>
      <line id="Line_9" data-name="Line 9" y2="61.192" transform="translate(98.927 31.123)" fill="none" stroke="#1961e4" stroke-miterlimit="10" stroke-width="0.75"/>
      <path id="Path_97" data-name="Path 97" d="M43.953,49.482a1.283,1.283,0,0,0,1.325,1.228h5.068a1.232,1.232,0,1,0,0-2.456H45.278a1.283,1.283,0,0,0-1.325,1.228" transform="translate(31.756 34.864)" fill="#1961e4"/>
      <path id="Path_98" data-name="Path 98" d="M43.953,49.482a1.283,1.283,0,0,0,1.325,1.228h5.068a1.232,1.232,0,1,0,0-2.456H45.278A1.283,1.283,0,0,0,43.953,49.482Z" transform="translate(31.756 34.864)" fill="none" stroke="#1961e4" stroke-miterlimit="10" stroke-width="0.75"/>
      <path id="Path_99" data-name="Path 99" d="M21.134,47.954c.031.115.071.226.11.339a4.913,4.913,0,0,0,.72,1.307,5.072,5.072,0,0,0,5.8,1.7l-1.3-3.533L24.781,43.2l-.529-1.435a5.083,5.083,0,0,0-3.118,6.185" transform="translate(15.122 30.179)" fill="#1961e4"/>
      <path id="Path_100" data-name="Path 100" d="M21.134,47.954c.031.115.071.226.11.339a4.913,4.913,0,0,0,.72,1.307,5.072,5.072,0,0,0,5.8,1.7l-1.3-3.533L24.781,43.2l-.529-1.435A5.083,5.083,0,0,0,21.134,47.954Z" transform="translate(15.122 30.179)" fill="none" stroke="#1961e4" stroke-miterlimit="10" stroke-width="0.75"/>
      <line id="Line_10" data-name="Line 10" x1="12.597" y1="26.861" transform="translate(67.081 51.087)" fill="none" stroke="#1961e4" stroke-miterlimit="10" stroke-width="0.75"/>
      <line id="Line_11" data-name="Line 11" x1="11.82" y1="25.188" transform="translate(60.41 52.76)" fill="none" stroke="#1961e4" stroke-miterlimit="10" stroke-width="0.75"/>
      <rect id="Rectangle_59" data-name="Rectangle 59" width="8.485" height="25.073" transform="translate(201.999 81.502)" fill="#1961e4"/>
      <rect id="Rectangle_60" data-name="Rectangle 60" width="8.485" height="25.073" transform="translate(201.999 81.502)" fill="none" stroke="#1961e4" stroke-miterlimit="10" stroke-width="0.75"/>
      <path id="Path_101" data-name="Path 101" d="M148.753,47.131V29.061H181.88V62.188H148.753V55.008" transform="translate(107.474 20.997)" fill="#fff"/>
      <path id="Path_102" data-name="Path 102" d="M148.753,47.131V29.061H181.88V62.188H148.753V55.008" transform="translate(107.474 20.997)" fill="none" stroke="#1961e4" stroke-miterlimit="10" stroke-width="0.75"/>
      <path id="Path_103" data-name="Path 103" d="M149.874,26.585a9.9,9.9,0,0,0-19.8,0h26.346" transform="translate(93.981 12.058)" fill="#fff"/>
      <path id="Path_104" data-name="Path 104" d="M149.874,26.585a9.9,9.9,0,0,0-19.8,0h26.346" transform="translate(93.981 12.058)" fill="none" stroke="#1961e4" stroke-miterlimit="10" stroke-width="0.75"/>
      <path id="Path_105" data-name="Path 105" d="M130.975,23.153a8.352,8.352,0,1,0,16.7,0" transform="translate(94.629 16.729)" fill="#fff"/>
      <path id="Path_106" data-name="Path 106" d="M130.975,23.153a8.352,8.352,0,1,0,16.7,0" transform="translate(94.629 16.729)" fill="none" stroke="#1961e4" stroke-miterlimit="10" stroke-width="0.75"/>
      <path id="Path_107" data-name="Path 107" d="M136.856,107.764h7.424L145.86,45.9,157.3,52.956a2.474,2.474,0,0,0,1.3.369h11.58a3.712,3.712,0,0,0,0-7.424h-7.667a2.479,2.479,0,0,1-1.611-.6L145.67,32.245a4.954,4.954,0,0,0-3.221-1.192H136.71a4.95,4.95,0,0,0-4.949,4.837L131.079,65.7Z" transform="translate(94.704 22.436)" fill="#1961e4"/>
      <path id="Path_108" data-name="Path 108" d="M136.856,107.764h7.424L145.86,45.9,157.3,52.956a2.474,2.474,0,0,0,1.3.369h11.58a3.712,3.712,0,0,0,0-7.424h-7.667a2.479,2.479,0,0,1-1.611-.6L145.67,32.245a4.954,4.954,0,0,0-3.221-1.192H136.71a4.95,4.95,0,0,0-4.949,4.837L131.079,65.7Z" transform="translate(94.704 22.436)" fill="none" stroke="#1961e4" stroke-miterlimit="10" stroke-width="0.75"/>
      <path id="Path_109" data-name="Path 109" d="M163.827,40.892h-7.691V29.06h7.691Z" transform="translate(112.808 20.997)" fill="#fff"/>
      <path id="Path_110" data-name="Path 110" d="M163.827,40.892h-7.691V29.06h7.691Z" transform="translate(112.808 20.997)" fill="none" stroke="#1961e4" stroke-miterlimit="10" stroke-width="0.75"/>
      <path id="Path_111" data-name="Path 111" d="M113.434,16.657a18.344,18.344,0,0,0-8.318-13.3A18.252,18.252,0,0,0,86.108,2.083c-6.3,3.075-9.81,8.3-10.636,15.241A18.4,18.4,0,0,0,77.814,28.6q7.71,13.944,15.432,27.877a5.92,5.92,0,0,0,.913,1.011h.673a5.982,5.982,0,0,0,.911-1.011Q103.487,42.524,111.2,28.55a18.648,18.648,0,0,0,2.236-11.894M104.046,19.4a9.552,9.552,0,1,1-9.469-9.749,9.564,9.564,0,0,1,9.469,9.749" transform="translate(54.436 0.001)" fill="#ff3d17"/>
      <path id="Path_112" data-name="Path 112" d="M100.021,15.351A9.552,9.552,0,1,1,90.552,5.6a9.564,9.564,0,0,1,9.469,9.749" transform="translate(58.462 4.045)" fill="#fff"/>
    </g>
  </g>
</svg>
