<svg xmlns="http://www.w3.org/2000/svg" xmlns:xlink="http://www.w3.org/1999/xlink" width="15.113" height="22.694" viewBox="0 0 15.113 22.694">
  <defs>
    <clipPath id="clip-path">
      <rect id="Rectangle_106" data-name="Rectangle 106" width="15.113" height="22.694" fill="none"/>
    </clipPath>
  </defs>
  <g id="Group_121" data-name="Group 121" transform="translate(0 0)">
    <g id="Group_107" data-name="Group 107" transform="translate(0 0)" clip-path="url(#clip-path)">
      <path id="Path_211" data-name="Path 211" d="M15.036,6.575a7.24,7.24,0,0,0-3.283-5.252,7.207,7.207,0,0,0-7.5-.5A7.283,7.283,0,0,0,.05,6.838a7.272,7.272,0,0,0,.925,4.453q3.043,5.5,6.092,11a2.325,2.325,0,0,0,.361.4h.265a2.359,2.359,0,0,0,.36-.4q3.057-5.509,6.1-11.025a7.359,7.359,0,0,0,.883-4.7M11.33,7.656A3.771,3.771,0,1,1,7.592,3.808,3.775,3.775,0,0,1,11.33,7.656" transform="translate(0 0)" fill="#ff3d17"/>
      <path id="Path_212" data-name="Path 212" d="M15.169,11.514a3.771,3.771,0,1,1-3.738-3.849,3.775,3.775,0,0,1,3.738,3.849" transform="translate(-3.839 -3.858)" fill="#fff"/>
    </g>
  </g>
</svg>
